<svg width="153" height="22" viewBox="0 0 153 22" fill="none" xmlns="http://www.w3.org/2000/svg">
<path d="M0.7 21H6.136C7.544 21 8.852 20.752 10.06 20.256C11.276 19.752 12.336 19.052 13.24 18.156C14.152 17.26 14.86 16.212 15.364 15.012C15.868 13.812 16.12 12.516 16.12 11.124C16.12 9.732 15.864 8.436 15.352 7.236C14.848 6.028 14.14 4.972 13.228 4.068C12.324 3.164 11.268 2.46 10.06 1.956C8.852 1.452 7.544 1.2 6.136 1.2H0.7V21ZM4.588 17.52V4.68H5.704C6.904 4.68 7.972 4.96 8.908 5.52C9.852 6.08 10.592 6.844 11.128 7.812C11.672 8.78 11.944 9.88 11.944 11.112C11.944 12.336 11.672 13.432 11.128 14.4C10.592 15.368 9.852 16.132 8.908 16.692C7.972 17.244 6.904 17.52 5.704 17.52H4.588ZM25.0359 21H36.0519V17.592H28.9239V12.78H35.7639V9.372H28.9239V4.608H36.0519V1.2H25.0359V21ZM50.9694 21.384C52.4094 21.384 53.6694 21.148 54.7494 20.676C55.8294 20.196 56.6694 19.508 57.2694 18.612C57.8774 17.708 58.1814 16.62 58.1814 15.348C58.1814 14.196 57.9294 13.252 57.4254 12.516C56.9294 11.772 56.2214 11.136 55.3014 10.608C54.3894 10.072 53.3134 9.548 52.0734 9.036C51.4974 8.796 50.9894 8.576 50.5494 8.376C50.1094 8.176 49.7654 7.94 49.5174 7.668C49.2774 7.388 49.1574 7.024 49.1574 6.576C49.1574 5.968 49.3894 5.448 49.8534 5.016C50.3254 4.584 50.9854 4.368 51.8334 4.368C52.5934 4.368 53.3294 4.524 54.0414 4.836C54.7614 5.148 55.3774 5.52 55.8894 5.952L57.5094 2.904C57.0774 2.536 56.5494 2.196 55.9254 1.884C55.3014 1.572 54.6294 1.32 53.9094 1.128C53.1894 0.935999 52.4694 0.839999 51.7494 0.839999C50.4774 0.839999 49.3614 1.116 48.4014 1.668C47.4414 2.212 46.6934 2.928 46.1574 3.816C45.6294 4.704 45.3654 5.652 45.3654 6.66C45.3654 7.516 45.5534 8.264 45.9294 8.904C46.3054 9.536 46.8014 10.076 47.4174 10.524C48.0334 10.972 48.6974 11.356 49.4094 11.676C50.3774 12.092 51.1974 12.468 51.8694 12.804C52.5494 13.14 53.0654 13.508 53.4174 13.908C53.7694 14.3 53.9454 14.808 53.9454 15.432C53.9454 16.216 53.6734 16.804 53.1294 17.196C52.5934 17.588 51.9094 17.784 51.0774 17.784C50.2854 17.784 49.5494 17.64 48.8694 17.352C48.1894 17.064 47.5814 16.724 47.0454 16.332C46.5174 15.94 46.0734 15.588 45.7134 15.276L43.7214 18.492C44.0574 18.82 44.5574 19.212 45.2214 19.668C45.8934 20.124 46.7094 20.524 47.6694 20.868C48.6374 21.212 49.7374 21.384 50.9694 21.384ZM67.1688 21H71.0568V1.2H67.1688V21ZM89.73 21.384C90.898 21.384 92.026 21.188 93.114 20.796C94.202 20.396 95.174 19.836 96.03 19.116C96.894 18.388 97.578 17.528 98.082 16.536C98.586 15.536 98.838 14.432 98.838 13.224V10.224H89.682V13.236H94.878V13.536C94.878 14.352 94.646 15.084 94.182 15.732C93.718 16.372 93.106 16.88 92.346 17.256C91.594 17.624 90.786 17.808 89.922 17.808C88.858 17.808 87.894 17.52 87.03 16.944C86.174 16.368 85.494 15.564 84.99 14.532C84.486 13.5 84.234 12.3 84.234 10.932C84.234 9.668 84.458 8.54 84.906 7.548C85.362 6.548 86.026 5.76 86.898 5.184C87.77 4.6 88.83 4.308 90.078 4.308C91.038 4.308 92.01 4.488 92.994 4.848C93.978 5.208 94.822 5.708 95.526 6.348L97.35 3.336C96.366 2.528 95.222 1.912 93.918 1.488C92.622 1.056 91.326 0.839999 90.03 0.839999C88.502 0.839999 87.122 1.112 85.89 1.656C84.658 2.192 83.606 2.936 82.734 3.888C81.862 4.832 81.194 5.924 80.73 7.164C80.266 8.396 80.034 9.708 80.034 11.1C80.034 12.556 80.278 13.908 80.766 15.156C81.262 16.404 81.95 17.496 82.83 18.432C83.718 19.36 84.75 20.084 85.926 20.604C87.102 21.124 88.37 21.384 89.73 21.384ZM107.755 21H111.643V7.68L120.175 21H124.063V1.2H120.175V14.52L111.643 1.2H107.755V21ZM143.002 21.384C144.386 21.384 145.682 21.12 146.89 20.592C148.098 20.064 149.158 19.332 150.07 18.396C150.982 17.452 151.694 16.36 152.206 15.12C152.726 13.872 152.986 12.536 152.986 11.112C152.986 9.688 152.726 8.356 152.206 7.116C151.694 5.868 150.982 4.776 150.07 3.84C149.158 2.896 148.098 2.16 146.89 1.632C145.682 1.104 144.386 0.839999 143.002 0.839999C141.618 0.839999 140.322 1.104 139.114 1.632C137.906 2.16 136.846 2.896 135.934 3.84C135.022 4.776 134.306 5.868 133.786 7.116C133.274 8.356 133.018 9.688 133.018 11.112C133.018 12.536 133.274 13.872 133.786 15.12C134.306 16.36 135.022 17.452 135.934 18.396C136.846 19.332 137.906 20.064 139.114 20.592C140.322 21.12 141.618 21.384 143.002 21.384ZM143.002 17.64C141.882 17.64 140.882 17.36 140.002 16.8C139.13 16.24 138.446 15.468 137.95 14.484C137.454 13.5 137.206 12.376 137.206 11.112C137.206 9.848 137.454 8.724 137.95 7.74C138.446 6.756 139.13 5.984 140.002 5.424C140.882 4.864 141.882 4.584 143.002 4.584C144.13 4.584 145.13 4.864 146.002 5.424C146.874 5.984 147.558 6.756 148.054 7.74C148.55 8.724 148.798 9.848 148.798 11.112C148.798 12.376 148.55 13.5 148.054 14.484C147.558 15.468 146.874 16.24 146.002 16.8C145.13 17.36 144.13 17.64 143.002 17.64Z" fill="white"/>
</svg>
